<svg enable-background="new 0 0 100 100" height="100" viewBox="0 0 100 100" width="100" xmlns="http://www.w3.org/2000/svg"><path d="m47.4 42.1c.9 0 1.9.1 2.7.2l-4.4-12.8c-.5-1.4-2.6-8-4.5-8-1 0-1.4 1.2-1.4 2 0 3.7 4.4 15.4 5.8 19 .6-.3 1.2-.4 1.8-.4z"/><path d="m46.8 63.7c.7 0 1.4-.8 1.4-1.5 0-.8-.8-2.9-1.2-3.7-1-2.4-4.4-10-7.4-10-1 0-2.6 1.7-2.6 2.7-.1 2.6 7.1 12.5 9.8 12.5z"/><path d="m67.6 24.9c0-.9-.3-2-1.4-2-2 0-4.2 6.7-4.8 8.2l-4.2 12 4.3.8c1.2-3.1 6.1-16.6 6.1-19z"/><path d="m54.3 56.9c-1.3-.3-2.6-.4-3.8-.8.4 1.1.8 2.1 1.2 3.2.8-.8 1.7-1.7 2.6-2.4z"/><path d="m89.2 0h-78.4c-6 0-10.8 4.8-10.8 10.8v78.4c0 6 4.8 10.8 10.8 10.8h78.4c6 0 10.8-4.8 10.8-10.8v-78.4c0-6-4.8-10.8-10.8-10.8zm-40.6 82.8c-2.8 0-5.5-.6-8.2-1.5-6.9-2.7-13.4-9.8-13.4-17.6 0-4.8 1.8-7.9 6.5-9.2-.4-1.1-1-2.7-1-3.8 0-3 3.7-6.7 6.7-6.7.9 0 1.8.3 2.6.5-1.5-4.4-6-16.6-6-20.7 0-3.7 1.9-6.6 5.8-6.6 5.1 0 10.9 18.4 12.2 22.1 1.6-4 6.7-20.9 12.4-20.9 3.6 0 5.6 2.9 5.6 6.3 0 3.9-4.3 15.9-5.8 20.1 6.1 1.5 7 6.5 7 12 0 14.6-9.3 26-24.4 26z"/><path d="m49.4 46.2c-.5 0-1.4 0-1.8.4-.4.2-.4.9-.4 1.3 0 5.6 11.8 5.1 15.4 5.1.7 0 1 .2 1.5.7.5.6.6 1.3.7 2-1 1-2.3 1.5-3.5 2-1.2.4-2.4.9-3.4 1.7-2.8 2-5.6 5.6-5.6 9.2 0 2.3 1.4 4.2 1.4 6.4 0 0-.3.8-.3 1-4.2-.3-5.2-4.4-5.3-7.9-.4.1-1 .1-1.5.1.1.3.1.5.1.8 0 2.7-2.4 4.6-4.9 4.6-4 0-9.2-4.6-9.2-8.7 0-1.1.5-1.7 1.2-2.4.7.9 1.5 1.8 2.2 2.8 1.1 1.4 2.9 3.8 4.9 3.8.5 0 1.5-.4 1.5-1.1 0-1.6-6-9.4-7.5-9.4-2.3 0-3.5 3-3.5 4.9 0 1.3.4 2.6.9 3.8 2.9 7.1 9.4 11.3 17 11.3 5.6 0 10.2-2.1 14-6.2 3.9-4.4 5.6-9.8 5.6-15.6 0-2 0-5.3-1.6-6.8-3.3-2.8-13.8-3.8-17.9-3.8z"/></svg>