<?xml version="1.0" standalone="no"?>
<!DOCTYPE svg PUBLIC "-//W3C//DTD SVG 20010904//EN"
 "http://www.w3.org/TR/2001/REC-SVG-20010904/DTD/svg10.dtd">
<svg version="1.0" xmlns="http://www.w3.org/2000/svg"
 width="300.000000pt" height="260.000000pt" viewBox="0 0 300.000000 260.000000"
 preserveAspectRatio="xMidYMid meet">
<metadata>
Created by potrace 1.10, written by Peter Selinger 2001-2011
</metadata>
<g transform="translate(0.000000,260.000000) scale(0.100000,-0.100000)"
fill="#000000" stroke="none">
<path d="M234 2421 c-91 -22 -160 -99 -170 -188 -3 -26 -1 -82 5 -123 5 -41
19 -154 30 -250 12 -96 28 -211 36 -255 13 -73 67 -387 78 -460 3 -16 19 -106
37 -200 17 -93 37 -206 45 -250 89 -512 91 -524 138 -573 58 -61 107 -78 213
-74 50 2 117 51 145 104 16 31 25 38 48 38 26 0 154 32 241 61 60 20 181 90
242 141 108 90 183 215 213 352 32 145 5 369 -64 529 -52 121 -159 252 -256
316 -22 14 -42 28 -45 31 -11 13 -105 52 -163 68 -90 25 -328 24 -376 -2 -19
-10 -37 -14 -42 -9 -8 8 -23 101 -54 338 -3 28 -12 96 -20 151 -15 115 -27
144 -82 195 -55 52 -133 75 -199 60z m121 -26 c28 -11 65 -46 65 -62 0 -7 4
-13 10 -13 14 0 36 -49 44 -95 3 -22 8 -51 10 -65 3 -14 19 -123 35 -242 17
-120 35 -227 41 -238 12 -23 35 -25 111 -9 73 15 225 12 311 -6 150 -31 282
-120 383 -260 56 -77 113 -202 129 -281 3 -10 9 -40 15 -66 36 -156 20 -310
-46 -447 -50 -106 -165 -220 -287 -286 -105 -57 -184 -82 -344 -110 -24 -4
-39 -16 -57 -45 -13 -21 -44 -52 -69 -69 -113 -78 -275 -9 -305 130 -7 30 -30
153 -51 274 -22 121 -47 257 -55 303 -9 45 -22 122 -30 170 -8 48 -21 121 -29
162 -7 41 -23 134 -35 205 -12 72 -28 164 -36 205 -17 96 -31 193 -50 355 -9
72 -18 137 -20 145 -2 8 -6 52 -10 98 -8 107 6 156 55 203 63 60 135 75 215
44z"/>
<path d="M693 1293 c-23 -3 -34 -12 -44 -35 -11 -26 -8 -53 15 -187 15 -86 39
-221 53 -301 13 -80 31 -155 39 -167 19 -30 41 -29 131 8 53 23 77 28 82 20 5
-7 29 9 69 48 51 50 64 71 80 123 11 35 19 77 17 93 -7 85 -21 138 -56 213
-44 95 -98 155 -156 172 -42 12 -181 21 -230 13z m198 -35 c118 -40 196 -171
206 -348 5 -74 3 -92 -16 -128 -33 -65 -83 -103 -196 -148 -119 -48 -108 -54
-131 71 -8 44 -21 118 -30 165 -38 211 -64 374 -59 378 20 21 175 28 226 10z"/>
<path d="M915 519 c-6 -17 -9 -56 -5 -84 1 -11 6 5 10 35 8 54 6 77 -5 49z"/>
<path d="M781 475 c0 -27 8 -79 19 -115 l20 -65 -7 50 c-3 28 -11 79 -18 115
l-13 65 -1 -50z"/>
<path d="M2277 2380 c-112 -36 -224 -129 -272 -228 -34 -70 -70 -175 -80 -233
-4 -24 -9 -47 -12 -51 -2 -4 -27 8 -55 27 -50 35 -68 40 -143 37 -55 -3 -123
-47 -159 -105 -24 -39 -29 -57 -28 -109 1 -59 27 -314 37 -348 2 -8 6 -46 10
-85 8 -90 22 -194 34 -248 5 -23 12 -67 16 -97 12 -102 54 -290 76 -340 24
-55 92 -124 144 -146 90 -37 217 -4 288 76 80 88 87 124 98 505 5 176 13 343
17 371 10 62 -1 107 -12 54 -19 -87 -26 -183 -31 -425 -8 -356 -11 -377 -67
-462 -74 -110 -215 -149 -315 -87 -91 57 -125 142 -172 429 -17 105 -36 215
-41 245 -5 30 -11 80 -15 110 -3 30 -15 138 -27 240 -26 229 -26 255 1 304 61
107 178 134 287 65 l48 -31 18 22 c10 12 18 32 18 44 0 32 54 188 85 244 50
92 145 171 248 206 52 18 152 22 162 6 3 -5 25 -18 48 -28 50 -23 67 -41 101
-108 31 -62 34 -137 11 -257 -21 -112 -20 -172 6 -208 l21 -30 33 21 c42 26
94 25 150 -1 54 -25 82 -58 91 -105 16 -84 -24 -149 -123 -201 -173 -92 -339
-85 -444 16 -41 40 -49 54 -50 87 -2 37 -2 37 -9 -11 -6 -49 -6 -51 38 -97 58
-61 126 -88 225 -88 121 0 232 39 321 112 128 105 85 288 -76 328 -49 13 -133
6 -143 -11 -4 -5 -13 -9 -21 -9 -17 0 -14 50 12 194 23 127 19 201 -15 272
-34 73 -86 118 -157 139 -67 19 -105 18 -177 -5z"/>
<path d="M2325 2320 c-42 -11 -1 -11 50 -1 34 7 35 9 10 9 -16 0 -43 -4 -60
-8z"/>
<path d="M2332 2083 c-30 -58 -42 -125 -47 -258 l-4 -110 14 115 c17 136 27
182 49 233 16 36 5 54 -12 20z"/>
<path d="M1675 1856 c-38 -17 -82 -63 -60 -63 8 0 15 4 15 9 0 4 5 8 11 8 6 0
24 14 41 30 16 17 28 30 26 30 -2 -1 -16 -7 -33 -14z"/>
<path d="M1957 1730 c10 -83 23 -115 16 -40 -3 36 -10 72 -14 80 -6 9 -6 -7
-2 -40z"/>
<path d="M1637 1274 c6 -68 11 -77 12 -24 0 25 -3 51 -8 59 -5 8 -7 -5 -4 -35z"/>
</g>
</svg>
